<mxfile host="app.diagrams.net" modified="2022-02-04T21:03:57.589Z" agent="5.0 (Macintosh; Intel Mac OS X 10_15_7) AppleWebKit/537.36 (KHTML, like Gecko) Chrome/97.0.4692.99 Safari/537.36" etag="CSu0zmUU9CEMRDROho0d" version="16.5.3" type="github">
  <diagram id="YSo_khHKykI0nX7mdWZm" name="Page-1">
    <mxGraphModel dx="1298" dy="735" grid="1" gridSize="10" guides="1" tooltips="1" connect="1" arrows="1" fold="1" page="1" pageScale="1" pageWidth="827" pageHeight="1169" math="0" shadow="0">
      <root>
        <mxCell id="0" />
        <mxCell id="1" parent="0" />
        <mxCell id="PmNJXo4OOjhUNE1FbyF8-1" value="" style="whiteSpace=wrap;html=1;aspect=fixed;" parent="1" vertex="1">
          <mxGeometry x="80" y="80" width="280" height="280" as="geometry" />
        </mxCell>
        <mxCell id="PmNJXo4OOjhUNE1FbyF8-3" value="rg-TPSOE-Prod" style="aspect=fixed;html=1;points=[];align=center;image;fontSize=12;image=img/lib/azure2/general/Resource_Groups.svg;" parent="1" vertex="1">
          <mxGeometry x="140" y="130" width="49.94" height="47" as="geometry" />
        </mxCell>
        <mxCell id="PmNJXo4OOjhUNE1FbyF8-17" value="rg-TPSWQ-Prod" style="aspect=fixed;html=1;points=[];align=center;image;fontSize=12;image=img/lib/azure2/general/Resource_Groups.svg;" parent="1" vertex="1">
          <mxGeometry x="260" y="193" width="49.94" height="47" as="geometry" />
        </mxCell>
        <mxCell id="PmNJXo4OOjhUNE1FbyF8-21" value="TPS Prod" style="text;html=1;strokeColor=none;fillColor=none;align=center;verticalAlign=middle;whiteSpace=wrap;rounded=0;" parent="1" vertex="1">
          <mxGeometry x="200" y="40" width="60" height="30" as="geometry" />
        </mxCell>
        <mxCell id="ZxwpUjEWRn8DDJIIk_6S-1" value="" style="whiteSpace=wrap;html=1;aspect=fixed;" parent="1" vertex="1">
          <mxGeometry x="460" y="80" width="280" height="280" as="geometry" />
        </mxCell>
        <mxCell id="ZxwpUjEWRn8DDJIIk_6S-2" value="" style="verticalLabelPosition=bottom;html=1;verticalAlign=top;align=center;strokeColor=none;fillColor=#00BEF2;shape=mxgraph.azure.azure_subscription;" parent="1" vertex="1">
          <mxGeometry x="480" y="60" width="50" height="35" as="geometry" />
        </mxCell>
        <mxCell id="ZxwpUjEWRn8DDJIIk_6S-12" value="TPS-Dev" style="text;html=1;strokeColor=none;fillColor=none;align=center;verticalAlign=middle;whiteSpace=wrap;rounded=0;" parent="1" vertex="1">
          <mxGeometry x="580" y="40" width="60" height="30" as="geometry" />
        </mxCell>
        <mxCell id="ZxwpUjEWRn8DDJIIk_6S-13" value="" style="whiteSpace=wrap;html=1;aspect=fixed;" parent="1" vertex="1">
          <mxGeometry x="320" y="470" width="250" height="250" as="geometry" />
        </mxCell>
        <mxCell id="ZxwpUjEWRn8DDJIIk_6S-17" value="" style="verticalLabelPosition=bottom;html=1;verticalAlign=top;align=center;strokeColor=none;fillColor=#00BEF2;shape=mxgraph.azure.azure_subscription;" parent="1" vertex="1">
          <mxGeometry x="80" y="60" width="50" height="35" as="geometry" />
        </mxCell>
        <mxCell id="ZxwpUjEWRn8DDJIIk_6S-18" value="" style="verticalLabelPosition=bottom;html=1;verticalAlign=top;align=center;strokeColor=none;fillColor=#00BEF2;shape=mxgraph.azure.azure_subscription;" parent="1" vertex="1">
          <mxGeometry x="404.90999999999997" y="450" width="50" height="35" as="geometry" />
        </mxCell>
        <mxCell id="ZxwpUjEWRn8DDJIIk_6S-26" value="Central IT Subscription" style="text;html=1;strokeColor=none;fillColor=none;align=center;verticalAlign=middle;whiteSpace=wrap;rounded=0;" parent="1" vertex="1">
          <mxGeometry x="415" y="420" width="60" height="30" as="geometry" />
        </mxCell>
        <mxCell id="ZxwpUjEWRn8DDJIIk_6S-27" value="rg-IT-Connectivity" style="aspect=fixed;html=1;points=[];align=center;image;fontSize=12;image=img/lib/azure2/general/Resource_Groups.svg;" parent="1" vertex="1">
          <mxGeometry x="354.97" y="520" width="49.94" height="47" as="geometry" />
        </mxCell>
        <mxCell id="ZxwpUjEWRn8DDJIIk_6S-29" value="rg-IT-Directory" style="aspect=fixed;html=1;points=[];align=center;image;fontSize=12;image=img/lib/azure2/general/Resource_Groups.svg;" parent="1" vertex="1">
          <mxGeometry x="354.97" y="610" width="49.94" height="47" as="geometry" />
        </mxCell>
        <mxCell id="ZxwpUjEWRn8DDJIIk_6S-30" value="rg-IT-Logs" style="aspect=fixed;html=1;points=[];align=center;image;fontSize=12;image=img/lib/azure2/general/Resource_Groups.svg;" parent="1" vertex="1">
          <mxGeometry x="483.97" y="540" width="49.94" height="47" as="geometry" />
        </mxCell>
        <mxCell id="ZxwpUjEWRn8DDJIIk_6S-36" value="&lt;h1&gt;30x4 +1 Subscription&lt;/h1&gt;" style="text;html=1;strokeColor=none;fillColor=none;spacing=5;spacingTop=-20;whiteSpace=wrap;overflow=hidden;rounded=0;" parent="1" vertex="1">
          <mxGeometry x="119.94" y="465" width="190" height="120" as="geometry" />
        </mxCell>
        <mxCell id="OZtmqeisZLEIKbZTwVF0-2" value="rg-TPSDO-Prod" style="aspect=fixed;html=1;points=[];align=center;image;fontSize=12;image=img/lib/azure2/general/Resource_Groups.svg;" vertex="1" parent="1">
          <mxGeometry x="129.99999999999994" y="260" width="49.94" height="47" as="geometry" />
        </mxCell>
        <mxCell id="OZtmqeisZLEIKbZTwVF0-6" value="rg-TPSOE-Test" style="aspect=fixed;html=1;points=[];align=center;image;fontSize=12;image=img/lib/azure2/general/Resource_Groups.svg;" vertex="1" parent="1">
          <mxGeometry x="520.06" y="110" width="49.94" height="47" as="geometry" />
        </mxCell>
        <mxCell id="OZtmqeisZLEIKbZTwVF0-7" value="rg-TPSWQ-Test" style="aspect=fixed;html=1;points=[];align=center;image;fontSize=12;image=img/lib/azure2/general/Resource_Groups.svg;" vertex="1" parent="1">
          <mxGeometry x="630" y="173" width="49.94" height="47" as="geometry" />
        </mxCell>
        <mxCell id="OZtmqeisZLEIKbZTwVF0-8" value="rg-TPSDO-Test" style="aspect=fixed;html=1;points=[];align=center;image;fontSize=12;image=img/lib/azure2/general/Resource_Groups.svg;" vertex="1" parent="1">
          <mxGeometry x="520.06" y="260" width="49.94" height="47" as="geometry" />
        </mxCell>
      </root>
    </mxGraphModel>
  </diagram>
</mxfile>
